<svg width="11" height="10" viewBox="0 0 11 10" fill="none" xmlns="http://www.w3.org/2000/svg">
<path d="M10.1341 3.67958C10.117 3.62675 10.0854 3.57978 10.043 3.54399C10.0006 3.50819 9.94895 3.48501 9.89401 3.47707L6.74809 3.01994L5.34084 0.166545C5.31623 0.116834 5.27822 0.0749896 5.2311 0.0457341C5.18398 0.0164787 5.12962 0.000976563 5.07416 0.000976562C5.01869 0.000976562 4.96433 0.0164787 4.91721 0.0457341C4.87009 0.0749896 4.83208 0.116834 4.80748 0.166545L3.40022 3.01779L0.254303 3.47492C0.199463 3.48298 0.147963 3.50619 0.10561 3.54195C0.0632555 3.57771 0.0317307 3.62459 0.0145882 3.67731C-0.00255433 3.73002 -0.00463305 3.78648 0.00858632 3.84031C0.0218057 3.89415 0.0497976 3.94322 0.0894072 3.982L2.36572 6.20101L1.8286 9.3348C1.81961 9.38922 1.82591 9.44506 1.84681 9.49609C1.8677 9.54713 1.90237 9.59136 1.94693 9.62384C1.9915 9.65632 2.04422 9.67578 2.0992 9.68004C2.15418 9.6843 2.20926 9.6732 2.2583 9.64797L5.07442 8.17024L7.8884 9.64958C7.93748 9.67485 7.99263 9.68597 8.04767 9.68169C8.10271 9.67742 8.15547 9.65791 8.20006 9.62536C8.24465 9.59281 8.27931 9.54849 8.30015 9.49737C8.321 9.44624 8.32721 9.39033 8.3181 9.33588L7.78098 6.20208L10.0578 3.98307C10.0975 3.94459 10.1257 3.8958 10.1392 3.84218C10.1526 3.78856 10.1509 3.73225 10.1341 3.67958Z" fill="#FFB801"/>
</svg>
